# xmcd
#
# Track frame offsets:
#	150
#	12182
#	30337
#	49900
#	64561
#	77096
#	88906
#	105376
#	116888
#	129381
#	143532
#
# Disc length: 2134 seconds
#
# Revision: 0
# Processed by: cddbd v1.5.2PL0 Copyright (c) Steve Scherf et al.
# Submitted via: EasyCDDAExtractor 11.0.2.1
#
DISCID=8508540b
DTITLE=Gary Sterling - Pure Sterling
DYEAR=1900
DGENRE=Alternative
TTITLE0=Sweet Soul Music 
TTITLE1=Cry Baby
TTITLE2=Mickey's Monkey - Do You Wanna Dance? - Do You Love Me?
TTITLE3=Something You Got
TTITLE4=Searching For My Love
TTITLE5=You Don't Know Like I Know
TTITLE6=Hold on to What You've Got
TTITLE7=Barefooting
TTITLE8=Mercy Mercy
TTITLE9=Girl Watcher
TTITLE10=FA-FA-FA-FA-FA
EXTD=
EXTT0=
EXTT1=
EXTT2=
EXTT3=
EXTT4=
EXTT5=
EXTT6=
EXTT7=
EXTT8=
EXTT9=
EXTT10=
PLAYORDER=
